<mxfile host="app.diagrams.net" modified="2023-11-22T16:21:40.536Z" agent="Mozilla/5.0 (Windows NT 10.0; Win64; x64) AppleWebKit/537.36 (KHTML, like Gecko) Chrome/119.0.0.0 Safari/537.36" etag="EGeJPZHbz_2wCulTOZyZ" version="22.1.3" type="device">
  <diagram name="Page-1" id="efa7a0a1-bf9b-a30e-e6df-94a7791c09e9">
    <mxGraphModel dx="1507" dy="660" grid="1" gridSize="10" guides="1" tooltips="1" connect="1" arrows="1" fold="1" page="1" pageScale="1" pageWidth="826" pageHeight="1169" background="none" math="0" shadow="0">
      <root>
        <mxCell id="0" />
        <mxCell id="1" parent="0" />
        <mxCell id="19" value="&lt;p style=&quot;margin: 0px; margin-top: 4px; text-align: center; text-decoration: underline;&quot;&gt;&lt;strong&gt;Destinos&lt;/strong&gt;&lt;/p&gt;&lt;hr&gt;&lt;p style=&quot;margin: 0px; margin-left: 8px;&quot;&gt;destinoId&lt;br&gt;nombre&lt;/p&gt;&lt;p style=&quot;margin: 0px; margin-left: 8px;&quot;&gt;descripcion&lt;/p&gt;" style="verticalAlign=top;align=left;overflow=fill;fontSize=12;fontFamily=Helvetica;html=1;strokeColor=#003366;shadow=1;fillColor=#D4E1F5;fontColor=#003366" parent="1" vertex="1">
          <mxGeometry x="456" y="50" width="104" height="120" as="geometry" />
        </mxCell>
        <mxCell id="20" value="&lt;p style=&quot;margin: 0px; margin-top: 4px; text-align: center; text-decoration: underline;&quot;&gt;&lt;strong&gt;Empleados&lt;/strong&gt;&lt;/p&gt;&lt;hr&gt;&lt;p style=&quot;margin: 0px; margin-left: 8px;&quot;&gt;empleadoId&lt;/p&gt;&lt;p style=&quot;margin: 0px; margin-left: 8px;&quot;&gt;nombre&lt;/p&gt;&lt;p style=&quot;margin: 0px; margin-left: 8px;&quot;&gt;apellido&lt;/p&gt;&lt;p style=&quot;margin: 0px; margin-left: 8px;&quot;&gt;cargoId&lt;/p&gt;&lt;p style=&quot;margin: 0px; margin-left: 8px;&quot;&gt;telefono&lt;/p&gt;" style="verticalAlign=top;align=left;overflow=fill;fontSize=12;fontFamily=Helvetica;html=1;strokeColor=#003366;shadow=1;fillColor=#D4E1F5;fontColor=#003366" parent="1" vertex="1">
          <mxGeometry x="458" y="330" width="100" height="125" as="geometry" />
        </mxCell>
        <mxCell id="23" value="&lt;p style=&quot;margin: 0px; margin-top: 4px; text-align: center; text-decoration: underline;&quot;&gt;&lt;b&gt;Viajes&lt;/b&gt;&lt;/p&gt;&lt;hr&gt;&lt;p style=&quot;margin: 0px; margin-left: 8px;&quot;&gt;viajeId&lt;/p&gt;&lt;p style=&quot;margin: 0px; margin-left: 8px;&quot;&gt;clienteId&lt;/p&gt;&lt;p style=&quot;margin: 0px; margin-left: 8px;&quot;&gt;destinoId&lt;/p&gt;&lt;p style=&quot;margin: 0px; margin-left: 8px;&quot;&gt;empleadoId&lt;/p&gt;&lt;p style=&quot;margin: 0px; margin-left: 8px;&quot;&gt;categoriaId&lt;/p&gt;&lt;p style=&quot;margin: 0px; margin-left: 8px;&quot;&gt;aerolineaId&lt;/p&gt;&lt;p style=&quot;margin: 0px; margin-left: 8px;&quot;&gt;fechaSalida&lt;/p&gt;&lt;p style=&quot;margin: 0px; margin-left: 8px;&quot;&gt;fechaRegreso&lt;/p&gt;&lt;p style=&quot;margin: 0px; margin-left: 8px;&quot;&gt;precio&lt;/p&gt;" style="verticalAlign=top;align=left;overflow=fill;fontSize=12;fontFamily=Helvetica;html=1;strokeColor=#003366;shadow=1;fillColor=#D4E1F5;fontColor=#003366" parent="1" vertex="1">
          <mxGeometry x="278" y="100" width="110" height="180" as="geometry" />
        </mxCell>
        <mxCell id="36" value="" style="endArrow=open;endSize=12;startArrow=diamondThin;startSize=14;startFill=0;edgeStyle=orthogonalEdgeStyle;exitX=0.001;exitY=0.339;exitDx=0;exitDy=0;exitPerimeter=0;" parent="1" source="19" target="23" edge="1">
          <mxGeometry y="160" as="geometry">
            <mxPoint x="438" y="100" as="sourcePoint" />
            <mxPoint x="578" y="160" as="targetPoint" />
            <Array as="points">
              <mxPoint x="418" y="91" />
              <mxPoint x="418" y="169" />
            </Array>
          </mxGeometry>
        </mxCell>
        <mxCell id="gZDDxwhRH7IHyWoU7e_S-115" value="&lt;p style=&quot;margin: 0px; margin-top: 4px; text-align: center; text-decoration: underline;&quot;&gt;&lt;b&gt;Clientes&lt;/b&gt;&lt;/p&gt;&lt;hr&gt;&lt;p style=&quot;margin: 0px; margin-left: 8px;&quot;&gt;clienteId&lt;br&gt;&lt;/p&gt;&lt;p style=&quot;margin: 0px; margin-left: 8px;&quot;&gt;nombre&lt;/p&gt;&lt;p style=&quot;margin: 0px; margin-left: 8px;&quot;&gt;apellido&lt;/p&gt;&lt;p style=&quot;margin: 0px; margin-left: 8px;&quot;&gt;DNI&lt;/p&gt;" style="verticalAlign=top;align=left;overflow=fill;fontSize=12;fontFamily=Helvetica;html=1;strokeColor=#003366;shadow=1;fillColor=#D4E1F5;fontColor=#003366" parent="1" vertex="1">
          <mxGeometry x="458" y="190" width="104" height="120" as="geometry" />
        </mxCell>
        <mxCell id="gZDDxwhRH7IHyWoU7e_S-116" value="" style="endArrow=open;endSize=12;startArrow=diamondThin;startSize=14;startFill=0;edgeStyle=orthogonalEdgeStyle;exitX=0.008;exitY=0.307;exitDx=0;exitDy=0;exitPerimeter=0;" parent="1" source="gZDDxwhRH7IHyWoU7e_S-115" target="23" edge="1">
          <mxGeometry y="160" as="geometry">
            <mxPoint x="438" y="220" as="sourcePoint" />
            <mxPoint x="388" y="154.48000000000002" as="targetPoint" />
            <Array as="points">
              <mxPoint x="428" y="227" />
              <mxPoint x="428" y="154" />
            </Array>
          </mxGeometry>
        </mxCell>
        <mxCell id="gZDDxwhRH7IHyWoU7e_S-117" value="&lt;p style=&quot;margin: 0px; margin-top: 4px; text-align: center; text-decoration: underline;&quot;&gt;&lt;strong&gt;Cargos&lt;/strong&gt;&lt;/p&gt;&lt;hr&gt;&lt;p style=&quot;margin: 0px; margin-left: 8px;&quot;&gt;cargoId&lt;/p&gt;&lt;p style=&quot;margin: 0px; margin-left: 8px;&quot;&gt;nombre&lt;/p&gt;&lt;p style=&quot;margin: 0px; margin-left: 8px;&quot;&gt;descripcion&lt;/p&gt;&lt;p style=&quot;margin: 0px; margin-left: 8px;&quot;&gt;departamento&lt;/p&gt;" style="verticalAlign=top;align=left;overflow=fill;fontSize=12;fontFamily=Helvetica;html=1;strokeColor=#003366;shadow=1;fillColor=#D4E1F5;fontColor=#003366" parent="1" vertex="1">
          <mxGeometry x="618" y="330" width="100" height="100" as="geometry" />
        </mxCell>
        <mxCell id="gZDDxwhRH7IHyWoU7e_S-118" value="" style="endArrow=open;endSize=12;startArrow=diamondThin;startSize=14;startFill=0;edgeStyle=orthogonalEdgeStyle;exitX=-0.005;exitY=0.314;exitDx=0;exitDy=0;exitPerimeter=0;" parent="1" source="20" target="23" edge="1">
          <mxGeometry y="160" as="geometry">
            <mxPoint x="458" y="262.52" as="sourcePoint" />
            <mxPoint x="387" y="190" as="targetPoint" />
            <Array as="points">
              <mxPoint x="418" y="369" />
              <mxPoint x="418" y="180" />
            </Array>
          </mxGeometry>
        </mxCell>
        <mxCell id="gZDDxwhRH7IHyWoU7e_S-119" value="" style="endArrow=open;endSize=12;startArrow=diamondThin;startSize=14;startFill=0;edgeStyle=orthogonalEdgeStyle;entryX=0.982;entryY=0.642;entryDx=0;entryDy=0;exitX=0.011;exitY=0.368;exitDx=0;exitDy=0;exitPerimeter=0;entryPerimeter=0;" parent="1" source="gZDDxwhRH7IHyWoU7e_S-117" target="20" edge="1">
          <mxGeometry y="160" as="geometry">
            <mxPoint x="618" y="380" as="sourcePoint" />
            <mxPoint x="558" y="410" as="targetPoint" />
            <Array as="points">
              <mxPoint x="588" y="367" />
              <mxPoint x="588" y="410" />
            </Array>
          </mxGeometry>
        </mxCell>
        <mxCell id="gZDDxwhRH7IHyWoU7e_S-120" value="&lt;p style=&quot;margin: 0px; margin-top: 4px; text-align: center; text-decoration: underline;&quot;&gt;&lt;b&gt;Categorias&lt;/b&gt;&lt;/p&gt;&lt;hr&gt;&lt;p style=&quot;margin: 0px; margin-left: 8px;&quot;&gt;categoriaId&lt;/p&gt;&lt;p style=&quot;margin: 0px; margin-left: 8px;&quot;&gt;nombre&lt;/p&gt;&lt;p style=&quot;margin: 0px; margin-left: 8px;&quot;&gt;descripcion&lt;/p&gt;" style="verticalAlign=top;align=left;overflow=fill;fontSize=12;fontFamily=Helvetica;html=1;strokeColor=#003366;shadow=1;fillColor=#D4E1F5;fontColor=#003366" parent="1" vertex="1">
          <mxGeometry x="108" y="80" width="110" height="90" as="geometry" />
        </mxCell>
        <mxCell id="gZDDxwhRH7IHyWoU7e_S-121" value="" style="endArrow=open;endSize=12;startArrow=diamondThin;startSize=14;startFill=0;edgeStyle=orthogonalEdgeStyle;exitX=1.011;exitY=0.42;exitDx=0;exitDy=0;exitPerimeter=0;" parent="1" source="gZDDxwhRH7IHyWoU7e_S-120" target="23" edge="1">
          <mxGeometry y="160" as="geometry">
            <mxPoint x="256" y="160" as="sourcePoint" />
            <mxPoint x="188" y="249" as="targetPoint" />
            <Array as="points">
              <mxPoint x="248" y="118" />
              <mxPoint x="248" y="197" />
            </Array>
          </mxGeometry>
        </mxCell>
        <mxCell id="gZDDxwhRH7IHyWoU7e_S-122" value="&lt;p style=&quot;margin: 0px; margin-top: 4px; text-align: center; text-decoration: underline;&quot;&gt;&lt;b&gt;Aerolineas&lt;/b&gt;&lt;/p&gt;&lt;hr&gt;&lt;p style=&quot;margin: 0px; margin-left: 8px;&quot;&gt;aerolineaId&lt;/p&gt;&lt;p style=&quot;margin: 0px; margin-left: 8px;&quot;&gt;nombre&lt;/p&gt;&lt;p style=&quot;margin: 0px; margin-left: 8px;&quot;&gt;descripcion&lt;/p&gt;" style="verticalAlign=top;align=left;overflow=fill;fontSize=12;fontFamily=Helvetica;html=1;strokeColor=#003366;shadow=1;fillColor=#D4E1F5;fontColor=#003366" parent="1" vertex="1">
          <mxGeometry x="108" y="190" width="110" height="90" as="geometry" />
        </mxCell>
        <mxCell id="gZDDxwhRH7IHyWoU7e_S-123" value="" style="endArrow=open;endSize=12;startArrow=diamondThin;startSize=14;startFill=0;edgeStyle=orthogonalEdgeStyle;entryX=0.022;entryY=0.63;entryDx=0;entryDy=0;entryPerimeter=0;" parent="1" source="gZDDxwhRH7IHyWoU7e_S-122" target="23" edge="1">
          <mxGeometry y="160" as="geometry">
            <mxPoint x="218" y="230" as="sourcePoint" />
            <mxPoint x="277" y="309" as="targetPoint" />
            <Array as="points">
              <mxPoint x="248" y="230" />
              <mxPoint x="248" y="213" />
            </Array>
          </mxGeometry>
        </mxCell>
        <mxCell id="4nKxzPjppTlqUkRFWT_7-36" value="&lt;p style=&quot;margin: 0px; margin-top: 4px; text-align: center; text-decoration: underline;&quot;&gt;&lt;b&gt;Hoteles&lt;/b&gt;&lt;/p&gt;&lt;hr&gt;&lt;p style=&quot;margin: 0px; margin-left: 8px;&quot;&gt;hotelId&lt;/p&gt;&lt;p style=&quot;margin: 0px; margin-left: 8px;&quot;&gt;nombre&lt;/p&gt;&lt;p style=&quot;margin: 0px; margin-left: 8px;&quot;&gt;ubicacion&lt;/p&gt;&lt;p style=&quot;margin: 0px; margin-left: 8px;&quot;&gt;estrellas&lt;/p&gt;&lt;p style=&quot;margin: 0px; margin-left: 8px;&quot;&gt;descripcion&lt;/p&gt;" style="verticalAlign=top;align=left;overflow=fill;fontSize=12;fontFamily=Helvetica;html=1;strokeColor=#003366;shadow=1;fillColor=#D4E1F5;fontColor=#003366" parent="1" vertex="1">
          <mxGeometry x="108" y="300" width="110" height="130" as="geometry" />
        </mxCell>
        <mxCell id="uecQUzK9Th9EGiEjDM30-36" value="&lt;p style=&quot;margin: 0px; margin-top: 4px; text-align: center; text-decoration: underline;&quot;&gt;&lt;b&gt;Usuarios&lt;/b&gt;&lt;/p&gt;&lt;hr&gt;&lt;p style=&quot;margin: 0px; margin-left: 8px;&quot;&gt;usuarioId&lt;/p&gt;&lt;p style=&quot;margin: 0px; margin-left: 8px;&quot;&gt;nombreUsuario&lt;/p&gt;&lt;p style=&quot;margin: 0px; margin-left: 8px;&quot;&gt;descripcion&lt;/p&gt;&lt;p style=&quot;margin: 0px; margin-left: 8px;&quot;&gt;permisoId&lt;/p&gt;" style="verticalAlign=top;align=left;overflow=fill;fontSize=12;fontFamily=Helvetica;html=1;strokeColor=#003366;shadow=1;fillColor=#D4E1F5;fontColor=#003366" vertex="1" parent="1">
          <mxGeometry x="456" y="490" width="100" height="125" as="geometry" />
        </mxCell>
        <mxCell id="uecQUzK9Th9EGiEjDM30-37" value="" style="endArrow=open;endSize=12;startArrow=diamondThin;startSize=14;startFill=0;edgeStyle=orthogonalEdgeStyle;" edge="1" parent="1" source="20" target="uecQUzK9Th9EGiEjDM30-36">
          <mxGeometry y="160" as="geometry">
            <mxPoint x="625" y="490" as="sourcePoint" />
            <mxPoint x="562" y="533" as="targetPoint" />
            <Array as="points">
              <mxPoint x="580" y="370" />
              <mxPoint x="580" y="533" />
            </Array>
          </mxGeometry>
        </mxCell>
        <mxCell id="uecQUzK9Th9EGiEjDM30-38" value="&lt;p style=&quot;margin: 0px; margin-top: 4px; text-align: center; text-decoration: underline;&quot;&gt;&lt;b&gt;Permisos&lt;/b&gt;&lt;/p&gt;&lt;hr&gt;&lt;p style=&quot;margin: 0px; margin-left: 8px;&quot;&gt;permisoId&lt;/p&gt;&lt;p style=&quot;margin: 0px; margin-left: 8px;&quot;&gt;nombre&lt;/p&gt;&lt;p style=&quot;margin: 0px; margin-left: 8px;&quot;&gt;descripcion&lt;/p&gt;" style="verticalAlign=top;align=left;overflow=fill;fontSize=12;fontFamily=Helvetica;html=1;strokeColor=#003366;shadow=1;fillColor=#D4E1F5;fontColor=#003366" vertex="1" parent="1">
          <mxGeometry x="618" y="490" width="100" height="125" as="geometry" />
        </mxCell>
        <mxCell id="uecQUzK9Th9EGiEjDM30-42" value="" style="endArrow=open;endSize=12;startArrow=diamondThin;startSize=14;startFill=0;edgeStyle=orthogonalEdgeStyle;" edge="1" parent="1" source="uecQUzK9Th9EGiEjDM30-38" target="uecQUzK9Th9EGiEjDM30-36">
          <mxGeometry y="160" as="geometry">
            <mxPoint x="623" y="530" as="sourcePoint" />
            <mxPoint x="560" y="573" as="targetPoint" />
            <Array as="points">
              <mxPoint x="592" y="530" />
              <mxPoint x="592" y="573" />
            </Array>
          </mxGeometry>
        </mxCell>
      </root>
    </mxGraphModel>
  </diagram>
</mxfile>
